<svg width="34" height="33" viewBox="0 0 34 33" fill="none" xmlns="http://www.w3.org/2000/svg">
<g id="trading / tools / drawing tools">
<path id="icon" d="M3.79333 29.6394L3.7406 29.6115C3.73701 29.6095 3.73344 29.6074 3.72989 29.6053C3.70617 29.5915 3.68341 29.5758 3.66168 29.5589C3.61397 29.5218 3.57132 29.4785 3.535 29.4302C3.52159 29.4127 3.5089 29.3941 3.49713 29.3749C3.49307 29.3675 3.48915 29.3608 3.48536 29.354C3.4129 29.227 3.38107 29.0743 3.40838 28.9152C3.41185 28.8963 3.41553 28.8785 3.41989 28.861C3.42378 28.8457 3.42877 28.8286 3.43449 28.8115L6.13449 20.7115C6.15046 20.6636 6.17171 20.6178 6.19773 20.5749L6.24305 20.5091L6.29755 20.4477L23.8476 2.89765C24.1112 2.63405 24.5385 2.63405 24.8021 2.89765L30.2021 8.29765C30.4657 8.56126 30.4657 8.98864 30.2021 9.25225L12.6521 26.8022C12.6141 26.8403 12.5727 26.8728 12.5288 26.8999C12.5079 26.9126 12.4861 26.9244 12.4637 26.935C12.4552 26.9393 12.4462 26.9433 12.4372 26.9471C12.4212 26.9536 12.4049 26.9598 12.3883 26.9653L8.23573 28.3486L27.0248 28.35C27.3562 28.35 27.6318 28.5887 27.689 28.9036L27.6998 29.025C27.6998 29.3977 27.3976 29.7 27.0248 29.7L4.09472 29.7007C4.00641 29.7038 3.92127 29.6891 3.84267 29.66C3.84053 29.6582 3.83781 29.6572 3.8351 29.6561C3.82592 29.6538 3.80946 29.6469 3.79333 29.6394ZM7.06933 22.1737L5.14212 27.9577L10.9249 26.0293L7.06933 22.1737ZM20.95 7.7044L7.72948 20.925L12.1737 25.3692L25.3942 12.1486L20.95 7.7044ZM24.3248 4.32955L21.9045 6.74995L26.3487 11.1942L28.7703 8.77495L24.3248 4.32955Z" fill="#323738"/>
</g>
</svg>
